<?xml version="1.0" encoding="UTF-8"?>
<svg xmlns="http://www.w3.org/2000/svg" xmlns:xlink="http://www.w3.org/1999/xlink" width="96px" height="96px" viewBox="0 0 96 96" version="1.1">
<g id="surface1">
<path style=" stroke:none;fill-rule:nonzero;fill:rgb(87.450981%,87.450981%,87.450981%);fill-opacity:1;" d="M 48 6 C 24.804688 6 6 24.804688 6 48 C 6 71.195312 24.804688 90 48 90 C 71.195312 90 90 71.195312 90 48 C 90 24.804688 71.195312 6 48 6 Z M 39.09375 24.011719 C 39.90625 23.996094 40.730469 24.003906 41.53125 24.011719 C 60.714844 24.273438 75.640625 32.238281 75.640625 32.238281 C 77.585938 33.269531 78.515625 36.359375 77.707031 38.835938 C 76.894531 41.3125 74.398438 42.691406 72.457031 41.660156 C 72.457031 41.660156 48.125 28.816406 23.355469 36.714844 C 21.269531 37.585938 18.640625 35.902344 18.105469 33.1875 C 17.570312 30.472656 19.132812 27.324219 21.292969 26.835938 C 27.398438 24.886719 33.398438 24.128906 39.09375 24.011719 Z M 41.707031 42.011719 C 42.382812 42.007812 42.980469 41.988281 43.640625 42.011719 C 59.472656 42.5625 70.441406 51.316406 70.441406 51.316406 C 71.84375 52.425781 72.40625 55.285156 71.683594 57.433594 C 70.957031 59.582031 69.035156 60.664062 67.625 59.554688 C 67.625 59.554688 50.183594 45.488281 27.773438 53.707031 C 26.199219 54.453125 24.453125 52.972656 24.070312 50.519531 C 23.6875 48.066406 24.917969 45.367188 26.542969 44.941406 C 31.925781 42.96875 36.972656 42.054688 41.707031 42.011719 Z M 43.59375 60 C 51.339844 60.148438 58.246094 63.023438 64.855469 66.925781 C 65.839844 67.570312 66.3125 69.394531 65.765625 70.699219 C 65.21875 72.007812 63.742188 72.40625 62.851562 71.542969 C 62.851562 71.542969 50.632812 61.589844 32.507812 67.132812 C 31.46875 67.585938 30.277344 66.71875 30.035156 65.25 C 29.792969 63.78125 30.65625 62.101562 31.734375 61.882812 C 35.996094 60.582031 39.960938 59.976562 43.59375 60 Z M 43.59375 60 "/>
</g>
</svg>
